inDegrees=yes
name=ik_S53_A09_T01
DataType=double
version=3
OpenSimVersion=4.3-2021-08-27-4bc7ad9
endheader
time	pelvis_tilt	pelvis_list	pelvis_rotation	pelvis_tx	pelvis_ty	pelvis_tz	hip_flexion_r	hip_adduction_r	hip_rotation_r	knee_angle_r	knee_angle_r_beta	ankle_angle_r	subtalar_angle_r	mtp_angle_r	hip_flexion_l	hip_adduction_l	hip_rotation_l	knee_angle_l	knee_angle_l_beta	ankle_angle_l	subtalar_angle_l	mtp_angle_l	lumbar_extension	lumbar_bending	lumbar_rotation	arm_flex_r	arm_add_r	arm_rot_r	elbow_flex_r	pro_sup_r	wrist_flex_r	wrist_dev_r	arm_flex_l	arm_add_l	arm_rot_l	elbow_flex_l	pro_sup_l	wrist_flex_l	wrist_dev_l
6.033333333333317	-5.400517790189459	-7.373051820317126	34.77229498532532	0	0.9399999999999999	0	37.50884579684086	-12.290010540825	-10.64799949817724	49.88745774530041	0.8707003931050389	0	0	0	37.50884579684086	-12.290010540825	-10.64799949817724	49.88745774530041	0.8707003931050389	0	0	0	-5.951019275738704	-2.871573378339499	2.900489571295148	69.73847572925706	0.1731942219931918	4.397843303595416	44.4616621179855	142.8854107132023	0	0	60.46448509424369	-16.09501981202644	12.02892754263813	37.1046958832024	107.5427105115733	0	0
6.049999999999984	-5.456693515622897	-7.385707653900298	34.73144118193763	0	0.9399999999999999	0	37.51077546724027	-12.28798816319616	-10.6476320379045	49.88834647544491	0.870715904372222	0	0	0	37.51077546724027	-12.28798816319616	-10.6476320379045	49.88834647544491	0.870715904372222	0	0	0	-6.00494187535812	-2.850144096013351	2.907354048737929	69.86834334372892	0.1606575168896659	4.414249730810834	44.31719827357954	142.9157615982582	0	0	60.54243211953252	-16.12246173432117	11.94834659184212	37.24919491851993	107.6598175410868	0	0
6.06666666666665	-5.482378714981293	-7.363125625049568	34.73547710471033	0	0.9399999999999999	0	37.5122649824779	-12.28643071023702	-10.64734877399247	49.8890333899711	0.8707278932923839	0	0	0	37.5122649824779	-12.28643071023702	-10.64734877399247	49.8890333899711	0.8707278932923839	0	0	0	-6.014096709338228	-2.815939701271922	2.906796938042426	69.82396089407462	0.1739524966546477	4.285167456183533	44.29364497732534	143.0095890635481	0	0	60.55966939761007	-16.36097982046676	12.10494902122302	37.46546821882855	107.2805855339675	0	0
6.083333333333317	-5.477413058972961	-7.381314127149737	34.75817140200314	0	0.9399999999999999	0	37.51447167248562	-12.28410413346252	-10.64692683181471	49.89004291526864	0.8707455128327082	0	0	0	37.51447167248562	-12.28410413346252	-10.64692683181471	49.89004291526864	0.8707455128327082	0	0	0	-6.025315059840112	-2.825882090186985	2.863192722292431	69.76369713492954	0.2528695803178812	4.077328410846569	44.34594201459186	142.9978623860397	0	0	60.57588985623396	-16.73379265017048	12.22187719585696	37.68877088230277	106.9386472839741	0	0
6.099999999999984	-5.521138524469023	-7.382912416053037	34.81512100180253	0	0.9399999999999999	0	37.51616700416604	-12.28231530318811	-10.64660246878899	49.89081754214536	0.8707590326221812	0	0	0	37.51616700416604	-12.28231530318811	-10.64660246878899	49.89081754214536	0.8707590326221812	0	0	0	-6.065948912702566	-2.796766890288359	2.838357770412324	69.77634167147208	0.2469138176673921	3.951211415831368	44.4080609581898	142.9837700679717	0	0	60.67574795889487	-16.96543748138019	12.06198230381187	37.8931731702675	106.787011239468	0	0
6.11666666666665	-5.58802447360619	-7.410518427432478	34.85123142039217	0	0.9399999999999999	0	37.51773793478034	-12.28066063778138	-10.64630222214747	49.89153619405131	0.870771575464116	0	0	0	37.51773793478034	-12.28066063778138	-10.64630222214747	49.89153619405131	0.870771575464116	0	0	0	-6.1441258852676	-2.769642955595742	2.781229426417549	69.85205081362251	0.29483970387365	3.92740412299387	44.50188439456456	143.0000259211915	0	0	60.82641302764493	-17.31445954782594	11.94008543742568	38.19433429256417	106.5030428866693	0	0
6.133333333333317	-5.628292988840998	-7.432631202297624	34.81700050505891	0	0.9399999999999999	0	37.52029356822959	-12.27796687530811	-10.64581348967544	49.89270386381418	0.8707919551460539	0	0	0	37.52029356822959	-12.27796687530811	-10.64581348967544	49.89270386381418	0.8707919551460539	0	0	0	-6.200178449115948	-2.74865379363489	2.6959891267804	69.93726626503165	0.4424869845406319	4.024814926788061	44.51935399696126	142.8477704192784	0	0	60.73026107659219	-17.71977886691486	12.03246379242303	38.50947402826957	106.1581278193807	0	0
